<svg preserveAspectRatio="none" width="100%" height="100%" overflow="visible" style="display: block;" viewBox="0 0 200 90.4403" fill="none" xmlns="http://www.w3.org/2000/svg">
<g id="Vector">
<path d="M12.4852 11.1808V0H17.5787V11.1808H12.4852ZM24.0387 11.1808V0H29.1322V11.1808H24.0387ZM12.4852 79.508V68.3272H17.5787V79.508H12.4852ZM24.0387 79.508V68.3272H29.1322V79.508H24.0387ZM0 71.5572V7.9508H25.4674C30.1468 7.9508 34.0497 8.64442 37.1762 10.0317C40.3027 11.4189 42.6527 13.3445 44.2263 15.8084C45.7999 18.2516 46.5867 21.0675 46.5867 24.2561C46.5867 26.7408 46.0898 28.9252 45.0959 30.8093C44.1021 32.6728 42.7355 34.205 40.9963 35.4059C39.2778 36.5861 37.3108 37.4247 35.0953 37.9216V38.5427C37.5178 38.6463 39.785 39.3295 41.897 40.5925C44.0296 41.8556 45.7585 43.6259 47.0836 45.9034C48.4088 48.1603 49.0713 50.852 49.0713 53.9785C49.0713 57.3534 48.2328 60.366 46.5556 63.0163C44.8992 65.6458 42.4457 67.7267 39.1949 69.2589C35.9442 70.7911 31.9378 71.5572 27.1756 71.5572H0ZM13.448 60.5627H24.4114C28.1591 60.5627 30.8922 59.8484 32.6107 58.4197C34.3292 56.9704 35.1885 55.0448 35.1885 52.643C35.1885 50.883 34.764 49.3301 33.9151 47.9843C33.0662 46.6385 31.855 45.5825 30.2814 44.8164C28.7285 44.0503 26.8753 43.6673 24.722 43.6673H13.448V60.5627ZM13.448 34.5673H23.4176C25.2603 34.5673 26.8961 34.2464 28.3247 33.6045C29.7741 32.942 30.9129 32.0102 31.7411 30.8093C32.59 29.6084 33.0144 28.1694 33.0144 26.4923C33.0144 24.194 32.1966 22.3409 30.5609 20.933C28.9459 19.525 26.6476 18.821 23.666 18.821H13.448V34.5673Z" fill="#F7931A"/>
<path d="M79.048 72.4578C76.0043 72.4578 73.292 71.9299 70.9109 70.8739C68.5298 69.7972 66.6456 68.2133 65.2583 66.1221C63.8918 64.0101 63.2085 61.3806 63.2085 58.2334C63.2085 55.5831 63.6951 53.3573 64.6682 51.556C65.6414 49.7546 66.9665 48.3052 68.6436 47.2079C70.3208 46.1105 72.2256 45.2823 74.3583 44.7232C76.5116 44.1642 78.7685 43.7708 81.1289 43.543C83.9034 43.2532 86.1395 42.984 87.8374 42.7355C89.5352 42.4664 90.7671 42.073 91.5332 41.5553C92.2993 41.0377 92.6824 40.2716 92.6824 39.2571V39.0707C92.6824 37.1037 92.0612 35.5819 90.8189 34.5052C89.5973 33.4285 87.8581 32.8902 85.6012 32.8902C83.2201 32.8902 81.3256 33.4182 79.9176 34.4742C78.5097 35.5094 77.5779 36.8138 77.1224 38.3874L64.8856 37.3936C65.5068 34.4949 66.7284 31.9895 68.5505 29.8776C70.3725 27.745 72.7226 26.1093 75.6006 24.9705C78.4993 23.811 81.8536 23.2312 85.6633 23.2312C88.3136 23.2312 90.85 23.5418 93.2725 24.163C95.7157 24.7841 97.8794 25.7469 99.7636 27.0513C101.668 28.3558 103.17 30.0329 104.267 32.0827C105.364 34.1118 105.913 36.5447 105.913 39.3813V71.5572H93.3657V64.9419H92.993C92.2269 66.4326 91.202 67.7474 89.9182 68.8862C88.6345 70.0043 87.092 70.8843 85.2906 71.5261C83.4893 72.1473 81.4084 72.4578 79.048 72.4578ZM82.8371 63.3269C84.7833 63.3269 86.5019 62.9438 87.9926 62.1777C89.4834 61.3909 90.6533 60.335 91.5022 59.0098C92.3511 57.6847 92.7756 56.1836 92.7756 54.5064V49.444C92.3614 49.7132 91.7921 49.9617 91.0674 50.1894C90.3634 50.3965 89.5662 50.5932 88.6759 50.7795C87.7856 50.9451 86.8953 51.1004 86.005 51.2454C85.1146 51.3696 84.3071 51.4835 83.5824 51.587C82.0296 51.8148 80.6734 52.1771 79.5139 52.674C78.3544 53.171 77.4537 53.8439 76.8118 54.6928C76.17 55.521 75.8491 56.5563 75.8491 57.7986C75.8491 59.5999 76.5013 60.9768 77.8057 61.9293C79.1308 62.861 80.8079 63.3269 82.8371 63.3269Z" fill="black"/>
<path d="M145.541 90.4403C141.255 90.4403 137.58 89.8502 134.515 88.67C131.472 87.5105 129.049 85.9266 127.248 83.9182C125.446 81.9098 124.277 79.6529 123.738 77.1476L135.975 75.5015C136.348 76.454 136.938 77.3443 137.745 78.1725C138.553 79.0007 139.619 79.6633 140.944 80.1602C142.29 80.6778 143.926 80.9366 145.851 80.9366C148.729 80.9366 151.1 80.2327 152.964 78.8247C154.848 77.4375 155.79 75.1081 155.79 71.8367V63.1095H155.231C154.651 64.4346 153.782 65.6872 152.622 66.8674C151.463 68.0476 149.972 69.0104 148.15 69.7558C146.328 70.5012 144.154 70.8739 141.628 70.8739C138.046 70.8739 134.785 70.0457 131.844 68.3893C128.925 66.7122 126.596 64.1551 124.856 60.718C123.138 57.2602 122.279 52.8914 122.279 47.6116C122.279 42.2076 123.159 37.6938 124.919 34.0704C126.678 30.447 129.018 27.7346 131.938 25.9333C134.878 24.1319 138.097 23.2312 141.597 23.2312C144.268 23.2312 146.504 23.6868 148.305 24.5978C150.106 25.4881 151.556 26.6062 152.653 27.952C153.771 29.2772 154.63 30.5816 155.231 31.8653H155.728V23.8524H168.865V72.023C168.865 76.0813 167.871 79.4769 165.884 82.21C163.896 84.9431 161.142 86.9929 157.622 88.3594C154.123 89.7467 150.096 90.4403 145.541 90.4403ZM145.82 60.9354C147.953 60.9354 149.754 60.4074 151.224 59.3515C152.715 58.2748 153.854 56.7426 154.641 54.7549C155.448 52.7465 155.852 50.3447 155.852 47.5495C155.852 44.7543 155.459 42.3318 154.672 40.282C153.885 38.2115 152.746 36.6068 151.256 35.468C149.765 34.3292 147.953 33.7598 145.82 33.7598C143.646 33.7598 141.814 34.3499 140.323 35.5301C138.832 36.6896 137.704 38.3046 136.938 40.3751C136.172 42.4457 135.789 44.8371 135.789 47.5495C135.789 50.3033 136.172 52.6844 136.938 54.6928C137.725 56.6805 138.853 58.223 140.323 59.3204C141.814 60.3971 143.646 60.9354 145.82 60.9354Z" fill="black"/>
<path d="M200 67.1843V80.3031H186.881V67.1843H200Z" fill="black"/>
<path d="M200 45.3196V58.4384H186.881V45.3196H200Z" fill="#F7931A"/>
<path d="M200 23.4549V36.5737H186.881V23.4549H200Z" fill="#F7931A"/>
</g>
</svg>
